<?xml version="1.0" encoding="utf-8"?>
<!-- Generator: Adobe Illustrator 25.2.3, SVG Export Plug-In . SVG Version: 6.00 Build 0)  -->
<svg version="1.1" id="Ebene_1" xmlns="http://www.w3.org/2000/svg" xmlns:xlink="http://www.w3.org/1999/xlink" x="0px" y="0px"
	 viewBox="0 0 35 35" style="enable-background:new 0 0 35 35;" xml:space="preserve">
<path d="M26.37,25.96c0,2.16,0,4.24,0,6.31c0,0.75,0,0.75-0.73,0.75c-7.53,0-15.06,0-22.59,0c-0.75,0-0.76,0-0.76-0.73
	c0-7.59,0-15.18-0.01-22.76c0-0.5,0.15-0.64,0.64-0.64C4.7,8.92,6.48,8.9,8.25,8.9c0.2,0,0.4,0,0.67,0c0-0.26,0-0.46,0-0.66
	c0-1.92,0.01-3.85-0.01-5.77C8.91,1.99,9.04,1.83,9.54,1.83c7.6,0.02,15.21,0.02,22.81,0c0.48,0,0.65,0.12,0.64,0.62
	c-0.01,7.62-0.01,15.25,0,22.87c0,0.49-0.14,0.65-0.63,0.64c-1.77-0.03-3.55-0.01-5.32-0.01C26.84,25.96,26.64,25.96,26.37,25.96z
	 M2.82,32.5c7.71,0,15.36,0,23.03,0c0-2.2,0-4.35,0-6.55c-0.22,0-0.41,0-0.59,0c-5.19,0-10.39,0-15.58,0
	c-0.11,0-0.25,0.04-0.33-0.01c-0.16-0.1-0.37-0.24-0.4-0.39c-0.06-0.32-0.02-0.67-0.02-1.01c0-2.21,0-4.41,0-6.62
	c0-0.31,0-0.61,0.45-0.6c1.87,0.01,3.74,0,5.6,0.02c0.14,0,0.28,0.16,0.42,0.25c-0.14,0.08-0.28,0.23-0.43,0.24
	c-0.84,0.02-1.68,0.01-2.52,0.01c-0.98,0-1.97,0-2.97,0c0,2.57,0,5.08,0,7.59c5.49,0,10.93,0,16.39,0c0-5.36,0-10.67,0-16.01
	c-7.7,0-15.36,0-23.03,0C2.82,17.14,2.82,24.8,2.82,32.5z M32.47,25.45c0-7.71,0-15.4,0-23.09c-7.7,0-15.35,0-23,0
	c0,2.2,0,4.35,0,6.54c0.26,0,0.49,0,0.71,0c5.16,0,10.31,0.01,15.47-0.01c0.56,0,0.74,0.13,0.73,0.71
	c-0.02,5.07-0.01,10.13-0.01,15.2c0,0.21,0,0.43,0,0.65C28.45,25.45,30.44,25.45,32.47,25.45z"/>
<path d="M19.18,17.61c-0.01,0.64-0.57,1.17-1.2,1.14c-0.61-0.03-1.13-0.57-1.12-1.18c0.01-0.61,0.55-1.15,1.15-1.15
	C18.65,16.43,19.19,16.98,19.18,17.61z M18.68,17.57c-0.05-0.36-0.24-0.63-0.67-0.62c-0.42,0.01-0.65,0.26-0.64,0.67
	c0,0.39,0.24,0.62,0.63,0.63C18.42,18.26,18.64,18.01,18.68,17.57z"/>
</svg>
